# xmcd
#
# Track frame offsets: 
#        150
#        16835
#        32284
#        46114
#        57903
#        78774
#        98753
#        123883
#        142137
#        159705
#        176246
#        192059
#        208503
#        221804
#        234694
#        250980
#        271015
#        304949
#        318143
#        333354
#
# Disc length: 4640 seconds
#
# Revision: 0
# Processed by: cddbd v1.5.2PL0 Copyright (c) Steve Scherf et al.
# Submitted via: ExactAudioCopyFreeDBPlugin 1.0
#
DISCID=0d121e14
DTITLE=Various Artist - Ultimate Soul
DYEAR=2016
DGENRE=No, thanks.
TTITLE0=The Emotions - Best Of My Love
TTITLE1=The Jacksons - Enjoy Yourself
TTITLE2=Tina Charles - I Love To Love
TTITLE3=The Three Degrees - When Will I See You Again
TTITLE4=Earth, Wind and Fire - Fantasy
TTITLE5=Lou Rawls - You'll Never Find Another Love Like Mine
TTITLE6=Odyssey - Native New Yorker
TTITLE7=Dr. Buzzard's Original Savannah Band - Sunshower
TTITLE8=The Isley Brothers - Harvest For The World
TTITLE9=Harvey Mason - Till You Take My Love
TTITLE10=Melba Moore - This Is It
TTITLE11=Herbie Hancock - I Thought It Was You
TTITLE12=Barbara Mason - Give Me Your Love
TTITLE13=Deniece Williams - Free
TTITLE14=Heatwave - Always And Forever
TTITLE15=The Manhattans - Kiss And Say Goodbye
TTITLE16=Harold Melvin and The Blue Notes - Wake Up Everybody
TTITLE17=Johnnie Taylor - Please Don't Stop (That Song From Playing)
TTITLE18=The Tymes - Ms. Grace
TTITLE19=Labelle - Lady Marmelade
EXTD=
EXTT0=
EXTT1=
EXTT2=
EXTT3=
EXTT4=
EXTT5=
EXTT6=
EXTT7=
EXTT8=
EXTT9=
EXTT10=
EXTT11=
EXTT12=
EXTT13=
EXTT14=
EXTT15=
EXTT16=
EXTT17=
EXTT18=
EXTT19=
PLAYORDER=
